<svg width="120" height="120" viewBox="0 0 120 120" version="1.1" xmlns="http://www.w3.org/2000/svg" xmlns:xlink="http://www.w3.org/1999/xlink">
<title>01d</title>
<desc>Created using Figma</desc>
<g id="Canvas" transform="translate(47 60)">
<g id="01d">
<g id="Group">
<g id="Group">
<g id="Vector">
<use xlink:href="#path0_fill" transform="translate(-26.1304 -39.1304)" fill="#9BAEC7"/>
</g>
</g>
<g id="Group">
<g id="Vector">
<use xlink:href="#path1_fill" transform="translate(10.3913 -60)" fill="#9BAEC7"/>
</g>
</g>
<g id="Group">
<g id="Vector">
<use xlink:href="#path1_fill" transform="translate(10.3913 44.3478)" fill="#9BAEC7"/>
</g>
</g>
<g id="Group">
<g id="Vector">
<use xlink:href="#path2_fill" transform="translate(-18.306 -52.3131)" fill="#9BAEC7"/>
</g>
</g>
<g id="Group">
<g id="Vector">
<use xlink:href="#path3_fill" transform="translate(33.8643 38.0521)" fill="#9BAEC7"/>
</g>
</g>
<g id="Group">
<g id="Vector">
<use xlink:href="#path4_fill" transform="translate(-39.3131 -31.3055)" fill="#9BAEC7"/>
</g>
</g>
<g id="Group">
<g id="Vector">
<use xlink:href="#path5_fill" transform="translate(51.0556 20.8684)" fill="#9BAEC7"/>
</g>
</g>
<g id="Group">
<g id="Vector">
<use xlink:href="#path6_fill" transform="translate(-47 -2.6087)" fill="#9BAEC7"/>
</g>
</g>
<g id="Group">
<g id="Vector">
<use xlink:href="#path6_fill" transform="translate(57.3478 -2.6087)" fill="#9BAEC7"/>
</g>
</g>
<g id="Group">
<g id="Vector">
<use xlink:href="#path7_fill" transform="translate(-39.3148 20.8684)" fill="#9BAEC7"/>
</g>
</g>
<g id="Group">
<g id="Vector">
<use xlink:href="#path8_fill" transform="translate(51.0556 -31.3055)" fill="#9BAEC7"/>
</g>
</g>
<g id="Group">
<g id="Vector">
<use xlink:href="#path9_fill" transform="translate(-18.3044 38.0521)" fill="#9BAEC7"/>
</g>
</g>
<g id="Group">
<g id="Vector">
<use xlink:href="#path10_fill" transform="translate(33.8695 -52.3131)" fill="#9BAEC7"/>
</g>
</g>
</g>
</g>
</g>
<defs>
<path id="path0_fill" d="M 39.1304 78.2609C 17.5513 78.2609 0 60.7096 0 39.1304C 0 17.5513 17.5513 0 39.1304 0C 60.7096 0 78.2609 17.5513 78.2609 39.1304C 78.2609 60.7096 60.7096 78.2609 39.1304 78.2609ZM 39.1304 5.21739C 20.4313 5.21739 5.21739 20.4313 5.21739 39.1304C 5.21739 57.8296 20.4313 73.0435 39.1304 73.0435C 57.8296 73.0435 73.0435 57.8296 73.0435 39.1304C 73.0435 20.4313 57.8296 5.21739 39.1304 5.21739Z"/>
<path id="path1_fill" d="M 2.6087 15.6522C 1.1687 15.6522 0 14.4835 0 13.0435L 0 2.6087C 0 1.1687 1.1687 0 2.6087 0C 4.0487 0 5.21739 1.1687 5.21739 2.6087L 5.21739 13.0435C 5.21739 14.4835 4.0487 15.6522 2.6087 15.6522Z"/>
<path id="path2_fill" d="M 7.82772 14.2574C 6.92511 14.2574 6.04859 13.7931 5.56337 12.9531L 0.345982 3.91656C -0.368801 2.66438 0.0590251 1.07308 1.30598 0.353078C 2.54772 -0.37214 4.14424 0.0556868 4.86946 1.30786L 10.0869 10.3444C 10.8069 11.5913 10.379 13.1826 9.13207 13.9079C 8.7199 14.1426 8.2712 14.2574 7.82772 14.2574Z"/>
<path id="path3_fill" d="M 7.83136 14.2574C 6.92875 14.2574 6.05223 13.7931 5.56701 12.9531L 0.34962 3.91656C -0.37038 2.6696 0.0574489 1.07308 1.30441 0.353079C 2.54614 -0.372139 4.14266 0.0556902 4.86788 1.30786L 10.0853 10.3444C 10.8053 11.5913 10.3774 13.1879 9.13049 13.9079C 8.72353 14.1479 8.27484 14.2574 7.83136 14.2574Z"/>
<path id="path4_fill" d="M 11.6435 10.436C 11.2 10.436 10.7513 10.3264 10.3444 10.0864L 1.30786 4.86902C 0.0556868 4.14902 -0.37214 2.5525 0.353078 1.30554C 1.07308 0.0533683 2.6696 -0.369241 3.91656 0.350759L 12.9531 5.56815C 14.2 6.28815 14.6279 7.88467 13.9079 9.13163C 13.4226 9.97163 12.5461 10.436 11.6435 10.436Z"/>
<path id="path5_fill" d="M 11.6453 10.436C 11.2018 10.436 10.7531 10.3264 10.3409 10.0864L 1.30441 4.86902C 0.0574492 4.14902 -0.37038 2.5525 0.34962 1.30554C 1.06962 0.0533683 2.66614 -0.369243 3.9131 0.350757L 12.9496 5.56815C 14.1966 6.28815 14.6244 7.88467 13.9044 9.13163C 13.4244 9.97163 12.5479 10.436 11.6453 10.436Z"/>
<path id="path6_fill" d="M 13.0435 5.21739L 2.6087 5.21739C 1.1687 5.21739 0 4.0487 0 2.6087C 0 1.1687 1.1687 0 2.6087 0L 13.0435 0C 14.4835 0 15.6522 1.1687 15.6522 2.6087C 15.6522 4.0487 14.4835 5.21739 13.0435 5.21739Z"/>
<path id="path7_fill" d="M 2.61397 10.436C 1.71136 10.436 0.834837 9.97163 0.34962 9.13163C -0.37038 7.88467 0.0574462 6.28815 1.3044 5.56815L 10.3409 0.350757C 11.5827 -0.369243 13.1844 0.0533683 13.9096 1.30554C 14.6296 2.5525 14.2018 4.14902 12.9548 4.86902L 3.91832 10.0864C 3.50614 10.3264 3.05745 10.436 2.61397 10.436Z"/>
<path id="path8_fill" d="M 2.61397 10.436C 1.71136 10.436 0.834837 9.97163 0.34962 9.13163C -0.37038 7.88467 0.0574492 6.28815 1.30441 5.56815L 10.3409 0.350759C 11.5827 -0.369241 13.1792 0.0533683 13.9044 1.30554C 14.6244 2.5525 14.1966 4.14902 12.9496 4.86902L 3.9131 10.0864C 3.50614 10.3264 3.05745 10.436 2.61397 10.436Z"/>
<path id="path9_fill" d="M 2.60875 14.2574C 2.16527 14.2574 1.71658 14.1479 1.3044 13.9079C 0.0574459 13.1879 -0.370381 11.5913 0.349619 10.3444L 5.56701 1.30786C 6.28701 0.0556902 7.88353 -0.372139 9.13049 0.353079C 10.3774 1.07308 10.8053 2.6696 10.0853 3.91656L 4.86788 12.9531C 4.38266 13.7931 3.50614 14.2574 2.60875 14.2574Z"/>
<path id="path10_fill" d="M 2.60875 14.2574C 2.16527 14.2574 1.71658 14.1479 1.3044 13.9079C 0.0574459 13.1879 -0.370383 11.5913 0.349617 10.3444L 5.56701 1.30786C 6.28701 0.0556868 7.88353 -0.37214 9.13049 0.353078C 10.3774 1.07308 10.8053 2.6696 10.0853 3.91656L 4.86788 12.9531C 4.38267 13.7879 3.50614 14.2574 2.60875 14.2574Z"/>
</defs>
</svg>
