<svg width="120" height="120" viewBox="0 0 120 120" version="1.1" xmlns="http://www.w3.org/2000/svg" xmlns:xlink="http://www.w3.org/1999/xlink">
<title>01n</title>
<desc>Created using Figma</desc>
<g id="Canvas" transform="translate(735 1027)">
<g id="01n">
<g id="Group">
<g id="Group">
<g id="Vector">
<use xlink:href="#path0_fill" transform="translate(-719.919 -1011.92)" fill="#9BAEC7"/>
</g>
</g>
<g id="Group">
<g id="Vector">
<use xlink:href="#path1_fill" transform="translate(-735 -1027)" fill="#9BAEC7"/>
</g>
</g>
<g id="Group">
<g id="Vector">
<use xlink:href="#path2_fill" transform="translate(-690 -1027)" fill="#9BAEC7"/>
</g>
</g>
<g id="Group">
<g id="Vector">
<use xlink:href="#path3_fill" transform="translate(-705 -982)" fill="#9BAEC7"/>
</g>
</g>
</g>
</g>
</g>
<defs>
<path id="path0_fill" d="M 49.9194 104.921C 28.8044 104.921 9.30943 92.5506 0.239432 73.4106C -0.210568 72.4556 -0.0155673 71.3206 0.734433 70.5756C 1.47443 69.8256 2.61943 69.6306 3.56943 70.0856C 10.3494 73.2906 17.5294 74.9206 24.9194 74.9206C 52.4894 74.9206 74.9194 52.4906 74.9194 24.9206C 74.9194 17.5306 73.2894 10.3456 70.0744 3.57064C 69.6244 2.61564 69.8194 1.48064 70.5694 0.730643C 71.3094 -0.00935681 72.4494 -0.214357 73.4044 0.240643C 92.5494 9.30564 104.919 28.8056 104.919 49.9206C 104.919 80.2456 80.2444 104.921 49.9194 104.921ZM 8.12943 77.2656C 17.2844 91.2156 33.0344 99.9206 49.9194 99.9206C 77.4894 99.9206 99.9194 77.4906 99.9194 49.9206C 99.9194 33.0356 91.2144 17.2856 77.2644 8.13064C 79.0244 13.5606 79.9194 19.1806 79.9194 24.9206C 79.9194 55.2456 55.2444 79.9206 24.9194 79.9206C 19.1844 79.9206 13.5594 79.0306 8.12943 77.2656Z"/>
<path id="path1_fill" d="M 27.5 55C 26.12 55 25 53.88 25 52.5C 25 42.455 23.805 37.34 20.73 34.27C 17.66 31.195 12.55 30 2.5 30C 1.12 30 0 28.88 0 27.5C 0 26.12 1.12 25 2.5 25C 12.55 25 17.66 23.805 20.73 20.73C 23.805 17.66 25 12.545 25 2.5C 25 1.12 26.12 0 27.5 0C 28.88 0 30 1.12 30 2.5C 30 12.545 31.195 17.66 34.27 20.73C 37.34 23.805 42.45 25 52.5 25C 53.88 25 55 26.12 55 27.5C 55 28.88 53.88 30 52.5 30C 42.45 30 37.34 31.195 34.27 34.27C 31.195 37.34 30 42.455 30 52.5C 30 53.88 28.88 55 27.5 55ZM 19.52 27.5C 21.32 28.31 22.9 29.365 24.27 30.73C 25.635 32.1 26.69 33.685 27.5 35.48C 28.31 33.685 29.365 32.1 30.73 30.73C 32.1 29.365 33.68 28.31 35.48 27.5C 33.68 26.69 32.1 25.635 30.73 24.27C 29.365 22.9 28.31 21.315 27.5 19.52C 26.69 21.315 25.635 22.9 24.27 24.27C 22.9 25.635 21.32 26.69 19.52 27.5Z"/>
<path id="path2_fill" d="M 12.5 25C 11.12 25 10 23.88 10 22.5C 10 19.02 9.62 17.16 8.73 16.265C 7.84 15.38 5.98 15 2.5 15C 1.12 15 0 13.88 0 12.5C 0 11.12 1.12 10 2.5 10C 5.98 10 7.84 9.62 8.73 8.735C 9.62 7.84 10 5.98 10 2.5C 10 1.12 11.12 0 12.5 0C 13.88 0 15 1.12 15 2.5C 15 5.98 15.38 7.84 16.27 8.735C 17.16 9.62 19.02 10 22.5 10C 23.88 10 25 11.12 25 12.5C 25 13.88 23.88 15 22.5 15C 19.02 15 17.16 15.38 16.27 16.265C 15.38 17.16 15 19.02 15 22.5C 15 23.88 13.88 25 12.5 25Z"/>
<path id="path3_fill" d="M 17.5 35C 16.12 35 15 33.88 15 32.5C 15 26.845 14.345 23.88 12.735 22.27C 11.125 20.66 8.155 20 2.5 20C 1.12 20 0 18.88 0 17.5C 0 16.12 1.12 15 2.5 15C 8.155 15 11.125 14.345 12.735 12.73C 14.345 11.115 15 8.155 15 2.5C 15 1.12 16.12 0 17.5 0C 18.88 0 20 1.12 20 2.5C 20 8.155 20.655 11.12 22.265 12.73C 23.875 14.34 26.845 15 32.5 15C 33.88 15 35 16.12 35 17.5C 35 18.88 33.88 20 32.5 20C 26.845 20 23.875 20.655 22.265 22.27C 20.655 23.885 20 26.845 20 32.5C 20 33.88 18.88 35 17.5 35ZM 14.77 17.5C 15.305 17.86 15.805 18.27 16.27 18.735C 16.735 19.2 17.14 19.695 17.5 20.23C 17.855 19.7 18.265 19.2 18.73 18.735C 19.195 18.27 19.69 17.86 20.23 17.5C 19.695 17.14 19.195 16.73 18.73 16.265C 18.265 15.8 17.86 15.305 17.5 14.775C 17.145 15.305 16.735 15.805 16.27 16.27C 15.805 16.735 15.31 17.14 14.77 17.5Z"/>
</defs>
</svg>
