<svg width="120" height="100" viewBox="0 0 120 100" version="1.1" xmlns="http://www.w3.org/2000/svg" xmlns:xlink="http://www.w3.org/1999/xlink">
<title>02d</title>
<desc>Created using Figma</desc>
<g id="Canvas" transform="translate(735 1159)">
<g id="02d">
<g id="Group">
<g id="Group">
<g id="Group">
<g id="Group">
<g id="Vector">
<use xlink:href="#path0_fill" transform="translate(-685 -1144)" fill="#9BAEC7"/>
</g>
</g>
<g id="Group">
<g id="Vector">
<use xlink:href="#path1_fill" transform="translate(-665 -1159)" fill="#9BAEC7"/>
</g>
</g>
<g id="Group">
<g id="Vector">
<use xlink:href="#path2_fill" transform="translate(-696.816 -1145.82)" fill="#9BAEC7"/>
</g>
</g>
<g id="Group">
<g id="Vector">
<use xlink:href="#path3_fill" transform="translate(-625 -1114)" fill="#9BAEC7"/>
</g>
</g>
<g id="Group">
<g id="Vector">
<use xlink:href="#path4_fill" transform="translate(-636.716 -1145.82)" fill="#9BAEC7"/>
</g>
</g>
</g>
</g>
<g id="Group">
<g id="Vector">
<use xlink:href="#path5_fill" transform="translate(-735 -1134)" fill="#9BAEC7"/>
</g>
</g>
</g>
</g>
</g>
<defs>
<path id="path0_fill" d="M 52.5002 35C 51.1202 35 50.0002 33.88 50.0002 32.5C 50.0002 17.335 37.6652 5 22.5002 5C 16.8052 5 7.46523 7.985 4.75023 13.59C 4.15023 14.835 2.65023 15.35 1.41023 14.75C 0.165226 14.15 -0.349771 12.65 0.250229 11.41C 4.28023 3.1 16.0352 0 22.5002 0C 40.4202 0 55.0002 14.58 55.0002 32.5C 55.0002 33.88 53.8802 35 52.5002 35Z"/>
<path id="path1_fill" d="M 2.5 10C 1.12 10 0 8.88 0 7.5L 0 2.5C 0 1.12 1.12 0 2.5 0C 3.88 0 5 1.12 5 2.5L 5 7.5C 5 8.88 3.88 10 2.5 10Z"/>
<path id="path2_fill" d="M 6.03125 8.53125C 5.39125 8.53125 4.75125 8.28625 4.26125 7.80125L 0.73125 4.26625C -0.24375 3.29125 -0.24375 1.70625 0.73125 0.73125C 1.70625 -0.24375 3.29125 -0.24375 4.26625 0.73125L 7.80125 4.26625C 8.77625 5.24125 8.77625 6.82625 7.80125 7.80125C 7.31125 8.28625 6.67125 8.53125 6.03125 8.53125Z"/>
<path id="path3_fill" d="M 7.5 5L 2.5 5C 1.12 5 0 3.88 0 2.5C 0 1.12 1.12 0 2.5 0L 7.5 0C 8.88 0 10 1.12 10 2.5C 10 3.88 8.88 5 7.5 5Z"/>
<path id="path4_fill" d="M 2.50125 8.53125C 1.86125 8.53125 1.22125 8.28625 0.731248 7.80125C -0.243752 6.82625 -0.243752 5.24125 0.731248 4.26625L 4.26625 0.73125C 5.24125 -0.24375 6.82625 -0.24375 7.80125 0.73125C 8.77625 1.70625 8.77625 3.29125 7.80125 4.26625L 4.26625 7.80125C 3.78125 8.28625 3.14125 8.53125 2.50125 8.53125Z"/>
<path id="path5_fill" d="M 92.5 75L 22.5 75C 10.095 75 0 64.905 0 52.5C 0 42.68 6.32 34.13 15.565 31.145C 18.62 13.275 34.21 0 52.5 0C 66.845 0 79.8 8.115 86.11 20.845C 88.33 20.28 90.435 20 92.5 20C 107.665 20 120 32.335 120 47.5C 120 62.665 107.665 75 92.5 75ZM 52.5 5C 36.165 5 22.315 17.22 20.285 33.425C 20.155 34.46 19.4 35.3 18.395 35.545C 10.505 37.45 5 44.425 5 52.5C 5 62.15 12.85 70 22.5 70L 92.5 70C 104.905 70 115 59.905 115 47.5C 115 35.095 104.905 25 92.5 25C 90.32 25 88.035 25.405 85.52 26.23C 84.28 26.635 82.945 26.025 82.44 24.83C 77.33 12.785 65.58 5 52.5 5Z"/>
</defs>
</svg>
