<svg width="120" height="95" viewBox="0 0 120 95" version="1.1" xmlns="http://www.w3.org/2000/svg" xmlns:xlink="http://www.w3.org/1999/xlink">
<title>02n</title>
<desc>Created using Figma</desc>
<g id="Canvas" transform="translate(735 420)">
<g id="02n">
<g id="Group">
<g id="Group">
<g id="Vector">
<use xlink:href="#path0_fill" transform="translate(-663.75 -420)" fill="#9BAEC7"/>
</g>
</g>
<g id="Group">
<g id="Vector">
<use xlink:href="#path1_fill" transform="translate(-735 -400)" fill="#9BAEC7"/>
</g>
</g>
</g>
</g>
</g>
<defs>
<path id="path0_fill" d="M 41.25 55C 40.525 55 39.81 54.69 39.32 54.09C 38.44 53.025 38.59 51.45 39.66 50.57C 42.49 48.24 43.75 43.44 43.75 35C 43.75 18.455 30.295 5 13.75 5C 12.39 5 11.03 5.095 9.68 5.285C 19.805 11.585 26.25 22.81 26.25 35C 26.25 36.745 26.12 38.495 25.865 40.205C 25.66 41.57 24.39 42.495 23.02 42.305C 21.655 42.1 20.715 40.825 20.92 39.46C 21.14 38 21.25 36.495 21.25 35C 21.25 22.52 13.365 11.225 1.635 6.885C 0.654998 6.525 0 5.585 0 4.54C 0 3.495 0.649998 2.56 1.635 2.195C 5.58 0.739999 9.655 0 13.75 0C 33.05 0 48.75 15.7 48.75 35C 48.75 45.21 46.98 51.02 42.84 54.43C 42.375 54.81 41.81 55 41.25 55Z"/>
<path id="path1_fill" d="M 92.5 75L 22.5 75C 10.095 75 0 64.905 0 52.5C 0 42.68 6.32 34.13 15.565 31.145C 18.62 13.275 34.21 0 52.5 0C 66.845 0 79.8 8.115 86.11 20.845C 88.33 20.275 90.44 20 92.5 20C 107.665 20 120 32.335 120 47.5C 120 62.665 107.665 75 92.5 75ZM 52.5 5C 36.165 5 22.315 17.22 20.285 33.425C 20.155 34.46 19.4 35.3 18.395 35.545C 10.505 37.45 5 44.425 5 52.5C 5 62.15 12.85 70 22.5 70L 92.5 70C 104.905 70 115 59.905 115 47.5C 115 35.095 104.905 25 92.5 25C 90.32 25 88.035 25.405 85.52 26.23C 84.275 26.635 82.945 26.025 82.44 24.83C 77.33 12.785 65.58 5 52.5 5Z"/>
</defs>
</svg>
