<svg width="120" height="75" viewBox="0 0 120 75" version="1.1" xmlns="http://www.w3.org/2000/svg" xmlns:xlink="http://www.w3.org/1999/xlink">
<title>03n</title>
<desc>Created using Figma</desc>
<g id="Canvas" transform="translate(735 1266)">
<g id="03n">
<g id="Group">
<g id="Vector">
<use xlink:href="#path0_fill" transform="translate(-735 -1266)" fill="#9BAEC7"/>
</g>
</g>
</g>
</g>
<defs>
<path id="path0_fill" d="M 92.5 75L 22.5 75C 10.095 75 0 64.905 0 52.5C 0 42.68 6.32 34.13 15.565 31.145C 18.62 13.275 34.21 0 52.5 0C 66.845 0 79.8 8.115 86.11 20.845C 88.33 20.28 90.435 20 92.5 20C 107.665 20 120 32.335 120 47.5C 120 62.665 107.665 75 92.5 75ZM 52.5 5C 36.165 5 22.315 17.22 20.285 33.425C 20.155 34.46 19.4 35.3 18.395 35.545C 10.505 37.45 5 44.425 5 52.5C 5 62.15 12.85 70 22.5 70L 92.5 70C 104.905 70 115 59.905 115 47.5C 115 35.095 104.905 25 92.5 25C 90.32 25 88.035 25.405 85.52 26.23C 84.28 26.635 82.945 26.02 82.44 24.83C 77.33 12.785 65.58 5 52.5 5Z"/>
</defs>
</svg>
