<svg width="120" height="110" viewBox="0 0 120 110" version="1.1" xmlns="http://www.w3.org/2000/svg" xmlns:xlink="http://www.w3.org/1999/xlink">
<title>09n</title>
<desc>Created using Figma</desc>
<g id="Canvas" transform="translate(735 151)">
<g id="09n">
<g id="Group">
<g id="Group">
<g id="Group">
<g id="Vector">
<use xlink:href="#path0_fill" transform="translate(-702.5 -71.0027)" fill="#9BAEC7"/>
</g>
</g>
<g id="Group">
<g id="Vector">
<use xlink:href="#path1_fill" transform="translate(-710 -56)" fill="#9BAEC7"/>
</g>
</g>
<g id="Group">
<g id="Vector">
<use xlink:href="#path2_fill" transform="translate(-682.5 -71.0027)" fill="#9BAEC7"/>
</g>
</g>
<g id="Group">
<g id="Vector">
<use xlink:href="#path1_fill" transform="translate(-690 -56)" fill="#9BAEC7"/>
</g>
</g>
<g id="Group">
<g id="Vector">
<use xlink:href="#path3_fill" transform="translate(-662.5 -71.0027)" fill="#9BAEC7"/>
</g>
</g>
<g id="Group">
<g id="Vector">
<use xlink:href="#path1_fill" transform="translate(-670 -56)" fill="#9BAEC7"/>
</g>
</g>
</g>
<g id="Group">
<g id="Vector">
<use xlink:href="#path4_fill" transform="translate(-663.75 -151)" fill="#9BAEC7"/>
</g>
</g>
<g id="Group">
<g id="Vector">
<use xlink:href="#path5_fill" transform="translate(-735 -131)" fill="#9BAEC7"/>
</g>
</g>
</g>
</g>
</g>
<defs>
<path id="path0_fill" d="M 2.49977 20.0027C 1.93477 20.0027 1.36977 19.8127 0.899772 19.4227C -0.160228 18.5377 -0.305226 16.9627 0.579774 15.8977L 13.0798 0.897709C 13.9648 -0.162291 15.5348 -0.302296 16.6048 0.577704C 17.6648 1.4627 17.8098 3.0377 16.9248 4.1027L 4.42477 19.1027C 3.92477 19.6977 3.21477 20.0027 2.49977 20.0027Z"/>
<path id="path1_fill" d="M 7.5 15C 3.365 15 0 11.635 0 7.5C 0 3.365 3.365 0 7.5 0C 11.635 0 15 3.365 15 7.5C 15 11.635 11.635 15 7.5 15ZM 7.5 5C 6.12 5 5 6.12 5 7.5C 5 8.88 6.12 10 7.5 10C 8.88 10 10 8.88 10 7.5C 10 6.12 8.88 5 7.5 5Z"/>
<path id="path2_fill" d="M 2.49977 20.0027C 1.93477 20.0027 1.36977 19.8127 0.899774 19.4227C -0.160226 18.5377 -0.305226 16.9627 0.579774 15.8977L 13.0798 0.897709C 13.9648 -0.162291 15.5398 -0.302296 16.6048 0.577704C 17.6648 1.4627 17.8098 3.0377 16.9248 4.1027L 4.42477 19.1027C 3.92477 19.6977 3.21477 20.0027 2.49977 20.0027Z"/>
<path id="path3_fill" d="M 2.49977 20.0027C 1.93477 20.0027 1.36977 19.8127 0.899774 19.4227C -0.160226 18.5377 -0.305226 16.9627 0.579774 15.8977L 13.0798 0.897709C 13.9598 -0.162291 15.5348 -0.302296 16.6048 0.577704C 17.6648 1.4627 17.8098 3.0377 16.9248 4.1027L 4.42477 19.1027C 3.92477 19.6977 3.21477 20.0027 2.49977 20.0027Z"/>
<path id="path4_fill" d="M 41.25 55C 40.525 55 39.81 54.69 39.32 54.09C 38.44 53.025 38.59 51.45 39.66 50.57C 42.49 48.24 43.75 43.44 43.75 35C 43.75 18.455 30.295 5 13.75 5C 12.39 5 11.03 5.095 9.68001 5.285C 19.805 11.585 26.25 22.81 26.25 35C 26.25 36.745 26.12 38.495 25.865 40.205C 25.66 41.57 24.39 42.505 23.02 42.305C 21.655 42.1 20.715 40.825 20.92 39.46C 21.14 38 21.25 36.495 21.25 35C 21.25 22.52 13.365 11.225 1.635 6.885C 0.654998 6.525 0 5.585 0 4.54C 0 3.495 0.649998 2.56 1.635 2.195C 5.58 0.74 9.655 0 13.75 0C 33.05 0 48.75 15.7 48.75 35C 48.75 45.21 46.98 51.02 42.84 54.43C 42.375 54.81 41.81 55 41.25 55Z"/>
<path id="path5_fill" d="M 92.5 75C 91.12 75 90 73.88 90 72.5C 90 71.12 91.12 70 92.5 70C 104.905 70 115 59.905 115 47.5C 115 35.095 104.905 25 92.5 25C 90.32 25 88.035 25.405 85.52 26.23C 84.27 26.64 82.945 26.025 82.44 24.83C 77.33 12.785 65.58 5 52.5 5C 36.165 5 22.315 17.22 20.285 33.425C 20.155 34.46 19.4 35.3 18.395 35.545C 10.505 37.45 5 44.425 5 52.5C 5 62.15 12.85 70 22.5 70C 23.88 70 25 71.12 25 72.5C 25 73.88 23.88 75 22.5 75C 10.095 75 0 64.905 0 52.5C 0 42.68 6.32 34.13 15.565 31.145C 18.62 13.275 34.21 0 52.5 0C 66.845 0 79.8 8.115 86.11 20.845C 88.33 20.28 90.435 20 92.5 20C 107.665 20 120 32.335 120 47.5C 120 62.665 107.665 75 92.5 75Z"/>
</defs>
</svg>
