<svg width="120" height="110" viewBox="0 0 120 110" version="1.1" xmlns="http://www.w3.org/2000/svg" xmlns:xlink="http://www.w3.org/1999/xlink">
<title>10n</title>
<desc>Created using Figma</desc>
<g id="Canvas" transform="translate(735 293)">
<g id="10n">
<g id="Group">
<g id="Group">
<g id="Vector">
<use xlink:href="#path0_fill" transform="translate(-704.998 -198.003)" fill="#9BAEC7"/>
</g>
</g>
<g id="Group">
<g id="Vector">
<use xlink:href="#path1_fill" transform="translate(-689.998 -198.003)" fill="#9BAEC7"/>
</g>
</g>
<g id="Group">
<g id="Vector">
<use xlink:href="#path1_fill" transform="translate(-674.998 -198.003)" fill="#9BAEC7"/>
</g>
</g>
<g id="Group">
<g id="Vector">
<use xlink:href="#path2_fill" transform="translate(-659.998 -198.003)" fill="#9BAEC7"/>
</g>
</g>
<g id="Group">
<g id="Vector">
<use xlink:href="#path3_fill" transform="translate(-704.998 -218.001)" fill="#9BAEC7"/>
</g>
</g>
<g id="Group">
<g id="Vector">
<use xlink:href="#path4_fill" transform="translate(-689.998 -218.001)" fill="#9BAEC7"/>
</g>
</g>
<g id="Group">
<g id="Vector">
<use xlink:href="#path4_fill" transform="translate(-674.998 -218.001)" fill="#9BAEC7"/>
</g>
</g>
<g id="Group">
<g id="Vector">
<use xlink:href="#path5_fill" transform="translate(-659.998 -218.001)" fill="#9BAEC7"/>
</g>
</g>
<g id="Group">
<g id="Group">
<g id="Vector">
<use xlink:href="#path6_fill" transform="translate(-663.75 -293)" fill="#9BAEC7"/>
</g>
</g>
<g id="Group">
<g id="Vector">
<use xlink:href="#path7_fill" transform="translate(-735 -273)" fill="#9BAEC7"/>
</g>
</g>
</g>
</g>
</g>
</g>
<defs>
<path id="path0_fill" d="M 2.498 15.003C 2.123 15.003 1.743 14.918 1.383 14.738C 0.148003 14.118 -0.351997 12.618 0.263003 11.383L 5.263 1.383C 5.883 0.147999 7.383 -0.351996 8.618 0.263004C 9.853 0.883004 10.353 2.383 9.738 3.618L 4.738 13.618C 4.293 14.498 3.413 15.003 2.498 15.003Z"/>
<path id="path1_fill" d="M 2.498 15.003C 2.123 15.003 1.74301 14.918 1.38301 14.738C 0.148006 14.118 -0.351994 12.618 0.263006 11.383L 5.26301 1.383C 5.88301 0.147999 7.383 -0.351996 8.618 0.263004C 9.853 0.883004 10.353 2.383 9.738 3.618L 4.738 13.618C 4.293 14.498 3.413 15.003 2.498 15.003Z"/>
<path id="path2_fill" d="M 2.498 15.003C 2.123 15.003 1.74301 14.918 1.38301 14.738C 0.148006 14.118 -0.351994 12.618 0.263006 11.383L 5.263 1.383C 5.883 0.147999 7.37801 -0.351996 8.61801 0.263004C 9.85301 0.883004 10.353 2.383 9.738 3.618L 4.738 13.618C 4.293 14.498 3.413 15.003 2.498 15.003Z"/>
<path id="path3_fill" d="M 2.498 15.0008C 2.123 15.0008 1.743 14.9158 1.383 14.7358C 0.148003 14.1158 -0.351997 12.6158 0.263003 11.3808L 5.263 1.38081C 5.883 0.145806 7.383 -0.349189 8.618 0.260811C 9.853 0.880811 10.353 2.38081 9.738 3.61581L 4.738 13.6158C 4.293 14.4958 3.413 15.0008 2.498 15.0008Z"/>
<path id="path4_fill" d="M 2.498 15.0008C 2.123 15.0008 1.74301 14.9158 1.38301 14.7358C 0.148006 14.1158 -0.351994 12.6158 0.263006 11.3808L 5.26301 1.38081C 5.88301 0.145806 7.383 -0.349189 8.618 0.260811C 9.853 0.880811 10.353 2.38081 9.738 3.61581L 4.738 13.6158C 4.293 14.4958 3.413 15.0008 2.498 15.0008Z"/>
<path id="path5_fill" d="M 2.498 15.0008C 2.123 15.0008 1.74301 14.9158 1.38301 14.7358C 0.148006 14.1158 -0.351994 12.6158 0.263006 11.3808L 5.263 1.38081C 5.883 0.145806 7.37801 -0.349189 8.61801 0.260811C 9.85301 0.880811 10.353 2.38081 9.738 3.61581L 4.738 13.6158C 4.293 14.4958 3.413 15.0008 2.498 15.0008Z"/>
<path id="path6_fill" d="M 41.25 55C 40.525 55 39.81 54.69 39.32 54.09C 38.44 53.025 38.59 51.45 39.66 50.57C 42.49 48.24 43.75 43.44 43.75 35C 43.75 18.455 30.295 5 13.75 5C 12.39 5 11.03 5.095 9.68001 5.285C 19.805 11.585 26.25 22.81 26.25 35C 26.25 36.745 26.12 38.495 25.865 40.205C 25.66 41.57 24.39 42.505 23.02 42.305C 21.655 42.1 20.715 40.825 20.92 39.46C 21.14 38 21.25 36.495 21.25 35C 21.25 22.52 13.365 11.225 1.635 6.885C 0.654998 6.525 0 5.585 0 4.54C 0 3.495 0.649998 2.56 1.635 2.195C 5.58 0.74 9.655 0 13.75 0C 33.05 0 48.75 15.7 48.75 35C 48.75 45.21 46.98 51.02 42.84 54.43C 42.375 54.81 41.81 55 41.25 55Z"/>
<path id="path7_fill" d="M 92.5 75C 91.12 75 90 73.88 90 72.5C 90 71.12 91.12 70 92.5 70C 104.905 70 115 59.905 115 47.5C 115 35.095 104.905 25 92.5 25C 90.32 25 88.035 25.405 85.52 26.23C 84.27 26.635 82.945 26.025 82.44 24.83C 77.33 12.785 65.58 5 52.5 5C 36.165 5 22.315 17.22 20.285 33.425C 20.155 34.46 19.4 35.3 18.395 35.545C 10.505 37.45 5 44.425 5 52.5C 5 62.15 12.85 70 22.5 70C 23.88 70 25 71.12 25 72.5C 25 73.88 23.88 75 22.5 75C 10.095 75 0 64.905 0 52.5C 0 42.68 6.32 34.13 15.565 31.145C 18.62 13.275 34.21 0 52.5 0C 66.845 0 79.8 8.115 86.11 20.845C 88.33 20.28 90.435 20 92.5 20C 107.665 20 120 32.335 120 47.5C 120 62.665 107.665 75 92.5 75Z"/>
</defs>
</svg>
