<svg width="120" height="120" viewBox="0 0 120 120" version="1.1" xmlns="http://www.w3.org/2000/svg" xmlns:xlink="http://www.w3.org/1999/xlink">
<title>11d</title>
<desc>Created using Figma</desc>
<g id="Canvas" transform="translate(735 9)">
<g id="11d">
<g id="Group">
<g id="Group">
<g id="Vector">
<use xlink:href="#path0_fill" transform="translate(-705.003 96.0005)" fill="#9BAEC7"/>
</g>
</g>
<g id="Group">
<g id="Vector">
<use xlink:href="#path1_fill" transform="translate(-655.003 96.0005)" fill="#9BAEC7"/>
</g>
</g>
<g id="Group">
<g id="Vector">
<use xlink:href="#path2_fill" transform="translate(-705.003 76.0014)" fill="#9BAEC7"/>
</g>
</g>
<g id="Group">
<g id="Vector">
<use xlink:href="#path3_fill" transform="translate(-655.003 76.0014)" fill="#9BAEC7"/>
</g>
</g>
<g id="Group">
<g id="Group">
<g id="Vector">
<use xlink:href="#path4_fill" transform="translate(-694.999 50.9991)" fill="#9BAEC7"/>
</g>
</g>
<g id="Group">
<g id="Group">
<g id="Vector">
<use xlink:href="#path5_fill" transform="translate(-735 16)" fill="#9BAEC7"/>
</g>
</g>
</g>
<g id="Group">
<g id="Group">
<g id="Group">
<g id="Vector">
<use xlink:href="#path6_fill" transform="translate(-685 6)" fill="#9BAEC7"/>
</g>
</g>
<g id="Group">
<g id="Vector">
<use xlink:href="#path7_fill" transform="translate(-665 -9)" fill="#9BAEC7"/>
</g>
</g>
<g id="Group">
<g id="Vector">
<use xlink:href="#path8_fill" transform="translate(-696.821 4.18375)" fill="#9BAEC7"/>
</g>
</g>
<g id="Group">
<g id="Vector">
<use xlink:href="#path9_fill" transform="translate(-625 36)" fill="#9BAEC7"/>
</g>
</g>
<g id="Group">
<g id="Vector">
<use xlink:href="#path10_fill" transform="translate(-636.716 4.18375)" fill="#9BAEC7"/>
</g>
</g>
</g>
</g>
</g>
<g id="Group">
<g id="Vector">
<use xlink:href="#path11_fill" transform="translate(-680.003 96.0005)" fill="#9BAEC7"/>
</g>
</g>
</g>
</g>
</g>
<defs>
<path id="path0_fill" d="M 2.503 14.9995C 2.128 14.9995 1.748 14.9145 1.383 14.7345C 0.148003 14.1145 -0.351996 12.6145 0.263004 11.3795L 5.263 1.37951C 5.883 0.139509 7.383 -0.345486 8.618 0.259514C 9.853 0.879514 10.353 2.37951 9.738 3.61451L 4.738 13.6145C 4.298 14.4945 3.418 14.9995 2.503 14.9995Z"/>
<path id="path1_fill" d="M 2.503 14.9995C 2.128 14.9995 1.748 14.9145 1.383 14.7345C 0.147999 14.1145 -0.351996 12.6145 0.263004 11.3795L 5.263 1.37951C 5.883 0.139509 7.388 -0.345486 8.618 0.259514C 9.853 0.879514 10.353 2.37951 9.73801 3.61451L 4.73801 13.6145C 4.29801 14.4945 3.418 14.9995 2.503 14.9995Z"/>
<path id="path2_fill" d="M 2.503 14.9986C 2.128 14.9986 1.748 14.9136 1.383 14.7336C 0.148003 14.1136 -0.351996 12.6136 0.263004 11.3786L 5.263 1.37861C 5.883 0.143613 7.383 -0.346382 8.618 0.258618C 9.853 0.878618 10.353 2.37862 9.738 3.61362L 4.738 13.6136C 4.298 14.4936 3.418 14.9986 2.503 14.9986Z"/>
<path id="path3_fill" d="M 2.503 14.9986C 2.128 14.9986 1.748 14.9136 1.383 14.7336C 0.147999 14.1136 -0.351996 12.6136 0.263004 11.3786L 5.263 1.37861C 5.883 0.143613 7.388 -0.346382 8.618 0.258618C 9.853 0.878618 10.353 2.37862 9.73801 3.61362L 4.73801 13.6136C 4.29801 14.4936 3.418 14.9986 2.503 14.9986Z"/>
<path id="path4_fill" d="M 2.49918 60.0009C 2.17918 60.0009 1.85418 59.9409 1.54418 59.8109C 0.439177 59.3559 -0.185822 58.1809 0.0491784 57.0109L 7.54918 19.5109C 7.69918 18.7459 8.20418 18.0959 8.90418 17.7559C 9.59918 17.4159 10.4192 17.4159 11.1192 17.7659L 17.9092 21.1609L 20.0142 2.22585C 20.0992 1.47585 20.5192 0.800856 21.1542 0.395856C 21.7842 -0.00914421 22.5642 -0.114146 23.2942 0.130854L 38.2942 5.13085C 39.5842 5.55585 40.2892 6.93586 39.8892 8.23586L 29.8892 40.7359C 29.6742 41.4409 29.1592 42.0108 28.4842 42.3008C 27.8092 42.5958 27.0392 42.5659 26.3842 42.2409L 18.3592 38.2259L 4.58418 58.8909C 4.10418 59.6009 3.31418 60.0009 2.49918 60.0009ZM 11.8092 23.7009L 7.42918 45.6009L 15.4192 33.6159C 16.1242 32.5659 17.4992 32.2109 18.6192 32.7659L 25.9792 36.4459L 34.3992 9.10085L 24.6492 5.85085L 22.4892 25.2759C 22.3942 26.0909 21.9192 26.8058 21.1992 27.1958C 20.4692 27.5808 19.6142 27.6009 18.8842 27.2359L 11.8092 23.7009Z"/>
<path id="path5_fill" d="M 92.5 75C 91.12 75 90 73.88 90 72.5C 90 71.12 91.12 70 92.5 70C 104.905 70 115 59.905 115 47.5C 115 35.095 104.905 25 92.5 25C 90.32 25 88.035 25.405 85.515 26.23C 84.305 26.645 82.945 26.025 82.44 24.83C 77.33 12.785 65.58 5 52.5 5C 36.165 5 22.315 17.22 20.285 33.425C 20.16 34.46 19.4 35.3 18.39 35.545C 10.51 37.45 5 44.425 5 52.5C 5 62.15 12.85 70 22.5 70C 23.88 70 25 71.12 25 72.5C 25 73.88 23.88 75 22.5 75C 10.095 75 0 64.905 0 52.5C 0 42.68 6.32 34.13 15.565 31.145C 18.62 13.275 34.21 0 52.5 0C 66.845 0 79.8 8.115 86.11 20.845C 88.33 20.28 90.44 20 92.5 20C 107.66 20 120 32.335 120 47.5C 120 62.665 107.66 75 92.5 75Z"/>
<path id="path6_fill" d="M 52.5002 35C 51.1202 35 50.0002 33.88 50.0002 32.5C 50.0002 17.335 37.6602 5 22.5002 5C 16.8052 5 7.47023 7.985 4.75023 13.59C 4.14523 14.835 2.65023 15.35 1.41023 14.745C 0.165226 14.145 -0.349771 12.65 0.250229 11.41C 4.28023 3.1 16.0352 0 22.5002 0C 40.4202 0 55.0002 14.58 55.0002 32.5C 55.0002 33.88 53.8802 35 52.5002 35Z"/>
<path id="path7_fill" d="M 2.5 10C 1.12 10 0 8.88 0 7.5L 0 2.5C 0 1.12 1.12 0 2.5 0C 3.88 0 5 1.12 5 2.5L 5 7.5C 5 8.88 3.88 10 2.5 10Z"/>
<path id="path8_fill" d="M 6.03625 8.53125C 5.39625 8.53125 4.75625 8.28625 4.26625 7.80125L 0.73125 4.26625C -0.24375 3.29125 -0.24375 1.70625 0.73125 0.73125C 1.70625 -0.24375 3.29125 -0.24375 4.26625 0.73125L 7.80125 4.26625C 8.77625 5.24125 8.77625 6.82625 7.80125 7.80125C 7.31625 8.28625 6.67625 8.53125 6.03625 8.53125Z"/>
<path id="path9_fill" d="M 7.5 5L 2.5 5C 1.12 5 0 3.88 0 2.5C 0 1.12 1.12 0 2.5 0L 7.5 0C 8.88 0 10 1.12 10 2.5C 10 3.88 8.88 5 7.5 5Z"/>
<path id="path10_fill" d="M 2.50125 8.53125C 1.86125 8.53125 1.22125 8.28625 0.731248 7.80125C -0.243752 6.82625 -0.243752 5.24125 0.731248 4.26625L 4.26625 0.73125C 5.24125 -0.24375 6.82625 -0.24375 7.80125 0.73125C 8.77625 1.70625 8.77625 3.29125 7.80125 4.26625L 4.26625 7.80125C 3.78125 8.28625 3.14125 8.53125 2.50125 8.53125Z"/>
<path id="path11_fill" d="M 2.503 14.9995C 2.128 14.9995 1.748 14.9145 1.383 14.7345C 0.148003 14.1145 -0.351996 12.6145 0.263004 11.3795L 5.263 1.37951C 5.888 0.139509 7.383 -0.345486 8.618 0.259514C 9.853 0.879514 10.353 2.37951 9.738 3.61451L 4.738 13.6145C 4.298 14.4945 3.418 14.9995 2.503 14.9995Z"/>
</defs>
</svg>
