<svg width="120" height="120" viewBox="0 0 120 120" version="1.1" xmlns="http://www.w3.org/2000/svg" xmlns:xlink="http://www.w3.org/1999/xlink">
<title>13d</title>
<desc>Created using Figma</desc>
<g id="Canvas" transform="translate(735 -143)">
<g id="13d">
<g id="Group">
<g id="Group">
<g id="Vector">
<use xlink:href="#path0_fill" transform="translate(-710 248)" fill="#9BAEC7"/>
</g>
</g>
<g id="Group">
<g id="Vector">
<use xlink:href="#path1_fill" transform="translate(-714.33 250.502)" fill="#9BAEC7"/>
</g>
</g>
<g id="Group">
<g id="Vector">
<use xlink:href="#path2_fill" transform="translate(-714.333 250.497)" fill="#9BAEC7"/>
</g>
</g>
<g id="Group">
<g id="Vector">
<use xlink:href="#path0_fill" transform="translate(-690 248)" fill="#9BAEC7"/>
</g>
</g>
<g id="Group">
<g id="Vector">
<use xlink:href="#path1_fill" transform="translate(-694.33 250.502)" fill="#9BAEC7"/>
</g>
</g>
<g id="Group">
<g id="Vector">
<use xlink:href="#path3_fill" transform="translate(-694.333 250.497)" fill="#9BAEC7"/>
</g>
</g>
<g id="Group">
<g id="Vector">
<use xlink:href="#path0_fill" transform="translate(-670 248)" fill="#9BAEC7"/>
</g>
</g>
<g id="Group">
<g id="Vector">
<use xlink:href="#path1_fill" transform="translate(-674.33 250.502)" fill="#9BAEC7"/>
</g>
</g>
<g id="Group">
<g id="Vector">
<use xlink:href="#path3_fill" transform="translate(-674.333 250.497)" fill="#9BAEC7"/>
</g>
</g>
<g id="Group">
<g id="Vector">
<use xlink:href="#path0_fill" transform="translate(-700 233)" fill="#9BAEC7"/>
</g>
</g>
<g id="Group">
<g id="Vector">
<use xlink:href="#path1_fill" transform="translate(-704.33 235.502)" fill="#9BAEC7"/>
</g>
</g>
<g id="Group">
<g id="Vector">
<use xlink:href="#path4_fill" transform="translate(-704.333 235.499)" fill="#9BAEC7"/>
</g>
</g>
<g id="Group">
<g id="Vector">
<use xlink:href="#path0_fill" transform="translate(-680 233)" fill="#9BAEC7"/>
</g>
</g>
<g id="Group">
<g id="Vector">
<use xlink:href="#path1_fill" transform="translate(-684.33 235.502)" fill="#9BAEC7"/>
</g>
</g>
<g id="Group">
<g id="Vector">
<use xlink:href="#path5_fill" transform="translate(-684.333 235.499)" fill="#9BAEC7"/>
</g>
</g>
<g id="Group">
<g id="Vector">
<use xlink:href="#path0_fill" transform="translate(-660 233)" fill="#9BAEC7"/>
</g>
</g>
<g id="Group">
<g id="Vector">
<use xlink:href="#path6_fill" transform="translate(-664.33 235.502)" fill="#9BAEC7"/>
</g>
</g>
<g id="Group">
<g id="Vector">
<use xlink:href="#path7_fill" transform="translate(-664.333 235.499)" fill="#9BAEC7"/>
</g>
</g>
<g id="Group">
<g id="Group">
<g id="Group">
<g id="Group">
<g id="Vector">
<use xlink:href="#path8_fill" transform="translate(-685 158)" fill="#9BAEC7"/>
</g>
</g>
<g id="Group">
<g id="Vector">
<use xlink:href="#path9_fill" transform="translate(-665 143)" fill="#9BAEC7"/>
</g>
</g>
<g id="Group">
<g id="Vector">
<use xlink:href="#path10_fill" transform="translate(-696.821 156.184)" fill="#9BAEC7"/>
</g>
</g>
<g id="Group">
<g id="Vector">
<use xlink:href="#path11_fill" transform="translate(-625 188)" fill="#9BAEC7"/>
</g>
</g>
<g id="Group">
<g id="Vector">
<use xlink:href="#path12_fill" transform="translate(-636.716 156.184)" fill="#9BAEC7"/>
</g>
</g>
</g>
</g>
<g id="Group">
<g id="Vector">
<use xlink:href="#path13_fill" transform="translate(-735 168)" fill="#9BAEC7"/>
</g>
</g>
</g>
</g>
</g>
</g>
<defs>
<path id="path0_fill" d="M 2.5 15C 1.12 15 0 13.88 0 12.5L 0 2.5C 0 1.12 1.12 0 2.5 0C 3.88 0 5 1.12 5 2.5L 5 12.5C 5 13.88 3.88 15 2.5 15Z"/>
<path id="path1_fill" d="M 11.1601 9.99783C 10.7351 9.99783 10.3051 9.89283 9.91005 9.66283L 1.25005 4.66283C 0.0550514 3.97283 -0.354947 2.44283 0.335053 1.24783C 1.02505 0.0528304 2.55505 -0.352172 3.75005 0.332828L 12.4101 5.33283C 13.6051 6.02283 14.0151 7.55283 13.3251 8.74783C 12.8651 9.54783 12.0201 9.99783 11.1601 9.99783Z"/>
<path id="path2_fill" d="M 2.50337 10.0034C 1.64337 10.0034 0.798368 9.55337 0.338368 8.75337C -0.356632 7.55837 0.0533658 6.02836 1.25337 5.33836L 9.91337 0.338364C 11.1034 -0.356636 12.6384 0.0533666 13.3284 1.25337C 14.0234 2.44837 13.6134 3.97837 12.4134 4.66837L 3.75337 9.66837C 3.35837 9.89837 2.92837 10.0034 2.50337 10.0034Z"/>
<path id="path3_fill" d="M 2.50337 10.0034C 1.64337 10.0034 0.798368 9.55337 0.338368 8.75337C -0.356632 7.55837 0.0533658 6.02836 1.25337 5.33836L 9.91337 0.338364C 11.1084 -0.356636 12.6384 0.0533666 13.3284 1.25337C 14.0234 2.44837 13.6134 3.97837 12.4134 4.66837L 3.75337 9.66837C 3.35837 9.89837 2.92837 10.0034 2.50337 10.0034Z"/>
<path id="path4_fill" d="M 2.50337 10.0011C 1.64337 10.0011 0.798368 9.55114 0.338368 8.75114C -0.356632 7.55614 0.0533658 6.02614 1.25337 5.33614L 9.91337 0.336142C 11.1034 -0.353858 12.6434 0.0511446 13.3284 1.25114C 14.0234 2.44614 13.6134 3.97615 12.4134 4.66615L 3.75337 9.66615C 3.35837 9.89615 2.92837 10.0011 2.50337 10.0011Z"/>
<path id="path5_fill" d="M 2.50337 10.0011C 1.64337 10.0011 0.798368 9.55114 0.338368 8.75114C -0.356632 7.55614 0.0533658 6.02614 1.25337 5.33614L 9.91337 0.336142C 11.1084 -0.353858 12.6434 0.0511446 13.3284 1.25114C 14.0234 2.44614 13.6134 3.97615 12.4134 4.66615L 3.75337 9.66615C 3.35837 9.89615 2.92837 10.0011 2.50337 10.0011Z"/>
<path id="path6_fill" d="M 11.16 9.99783C 10.735 9.99783 10.305 9.89283 9.91005 9.66283L 1.25005 4.66283C 0.0550514 3.97283 -0.354947 2.44283 0.335053 1.24783C 1.02505 0.0528304 2.55505 -0.352172 3.75005 0.332828L 12.41 5.33283C 13.605 6.02283 14.0151 7.55283 13.3251 8.74783C 12.8651 9.54783 12.02 9.99783 11.16 9.99783Z"/>
<path id="path7_fill" d="M 2.50337 10.0011C 1.64337 10.0011 0.798368 9.55114 0.338368 8.75114C -0.356632 7.55614 0.0533658 6.02614 1.25337 5.33614L 9.91336 0.336142C 11.1084 -0.353858 12.6434 0.0511446 13.3284 1.25114C 14.0234 2.44614 13.6134 3.97615 12.4134 4.66615L 3.75337 9.66615C 3.35837 9.89615 2.92837 10.0011 2.50337 10.0011Z"/>
<path id="path8_fill" d="M 52.5002 35C 51.1202 35 50.0002 33.88 50.0002 32.5C 50.0002 17.335 37.6602 5 22.5002 5C 16.8052 5 7.47023 7.985 4.75023 13.59C 4.14523 14.835 2.65523 15.35 1.41023 14.745C 0.165226 14.14 -0.349771 12.65 0.250229 11.41C 4.28023 3.1 16.0352 0 22.5002 0C 40.4202 0 55.0002 14.58 55.0002 32.5C 55.0002 33.88 53.8802 35 52.5002 35Z"/>
<path id="path9_fill" d="M 2.5 10C 1.12 10 0 8.88 0 7.5L 0 2.5C 0 1.12 1.12 0 2.5 0C 3.88 0 5 1.12 5 2.5L 5 7.5C 5 8.88 3.88 10 2.5 10Z"/>
<path id="path10_fill" d="M 6.03625 8.53125C 5.39625 8.53125 4.75625 8.28625 4.26625 7.80125L 0.73125 4.26625C -0.24375 3.29125 -0.24375 1.70625 0.73125 0.73125C 1.70625 -0.24375 3.29125 -0.24375 4.26625 0.73125L 7.80125 4.26625C 8.77625 5.24125 8.77625 6.82625 7.80125 7.80125C 7.31625 8.28625 6.67625 8.53125 6.03625 8.53125Z"/>
<path id="path11_fill" d="M 7.5 5L 2.5 5C 1.12 5 0 3.88 0 2.5C 0 1.12 1.12 0 2.5 0L 7.5 0C 8.88 0 10 1.12 10 2.5C 10 3.88 8.88 5 7.5 5Z"/>
<path id="path12_fill" d="M 2.50125 8.53125C 1.86125 8.53125 1.22125 8.28625 0.731248 7.80125C -0.243752 6.82625 -0.243752 5.24125 0.731248 4.26625L 4.26625 0.73125C 5.24125 -0.24375 6.82625 -0.24375 7.80125 0.73125C 8.77625 1.70625 8.77625 3.29125 7.80125 4.26625L 4.26625 7.80125C 3.78125 8.28625 3.14125 8.53125 2.50125 8.53125Z"/>
<path id="path13_fill" d="M 92.5 75C 91.12 75 90 73.88 90 72.5C 90 71.12 91.12 70 92.5 70C 104.905 70 115 59.905 115 47.5C 115 35.095 104.905 25 92.5 25C 90.32 25 88.035 25.405 85.515 26.23C 84.3 26.645 82.945 26.025 82.44 24.83C 77.33 12.785 65.58 5 52.5 5C 36.165 5 22.315 17.22 20.285 33.425C 20.16 34.46 19.4 35.3 18.39 35.545C 10.51 37.45 5 44.425 5 52.5C 5 62.15 12.85 70 22.5 70C 23.88 70 25 71.12 25 72.5C 25 73.88 23.88 75 22.5 75C 10.095 75 0 64.905 0 52.5C 0 42.68 6.32 34.13 15.565 31.145C 18.62 13.275 34.21 0 52.5 0C 66.845 0 79.8 8.115 86.11 20.845C 88.33 20.28 90.44 20 92.5 20C 107.66 20 120 32.335 120 47.5C 120 62.665 107.66 75 92.5 75Z"/>
</defs>
</svg>
