<svg width="120" height="115" viewBox="0 0 120 115" version="1.1" xmlns="http://www.w3.org/2000/svg" xmlns:xlink="http://www.w3.org/1999/xlink">
<title>13n</title>
<desc>Created using Figma</desc>
<g id="Canvas" transform="translate(735 -441)">
<g id="13n">
<g id="Group">
<g id="Group">
<g id="Vector">
<use xlink:href="#path0_fill" transform="translate(-663.75 441)" fill="#9BAEC7"/>
</g>
</g>
<g id="Group">
<g id="Group">
<g id="Vector">
<use xlink:href="#path1_fill" transform="translate(-710 541)" fill="#9BAEC7"/>
</g>
</g>
<g id="Group">
<g id="Vector">
<use xlink:href="#path2_fill" transform="translate(-714.33 543.5)" fill="#9BAEC7"/>
</g>
</g>
<g id="Group">
<g id="Vector">
<use xlink:href="#path3_fill" transform="translate(-714.335 543.5)" fill="#9BAEC7"/>
</g>
</g>
<g id="Group">
<g id="Vector">
<use xlink:href="#path1_fill" transform="translate(-690 541)" fill="#9BAEC7"/>
</g>
</g>
<g id="Group">
<g id="Vector">
<use xlink:href="#path4_fill" transform="translate(-694.33 543.5)" fill="#9BAEC7"/>
</g>
</g>
<g id="Group">
<g id="Vector">
<use xlink:href="#path5_fill" transform="translate(-694.335 543.5)" fill="#9BAEC7"/>
</g>
</g>
<g id="Group">
<g id="Vector">
<use xlink:href="#path1_fill" transform="translate(-670 541)" fill="#9BAEC7"/>
</g>
</g>
<g id="Group">
<g id="Vector">
<use xlink:href="#path4_fill" transform="translate(-674.33 543.5)" fill="#9BAEC7"/>
</g>
</g>
<g id="Group">
<g id="Vector">
<use xlink:href="#path5_fill" transform="translate(-674.335 543.5)" fill="#9BAEC7"/>
</g>
</g>
<g id="Group">
<g id="Vector">
<use xlink:href="#path1_fill" transform="translate(-700 526)" fill="#9BAEC7"/>
</g>
</g>
<g id="Group">
<g id="Vector">
<use xlink:href="#path6_fill" transform="translate(-704.33 528.498)" fill="#9BAEC7"/>
</g>
</g>
<g id="Group">
<g id="Vector">
<use xlink:href="#path7_fill" transform="translate(-704.335 528.498)" fill="#9BAEC7"/>
</g>
</g>
<g id="Group">
<g id="Vector">
<use xlink:href="#path1_fill" transform="translate(-680 526)" fill="#9BAEC7"/>
</g>
</g>
<g id="Group">
<g id="Vector">
<use xlink:href="#path8_fill" transform="translate(-684.33 528.498)" fill="#9BAEC7"/>
</g>
</g>
<g id="Group">
<g id="Vector">
<use xlink:href="#path9_fill" transform="translate(-684.335 528.498)" fill="#9BAEC7"/>
</g>
</g>
<g id="Group">
<g id="Vector">
<use xlink:href="#path1_fill" transform="translate(-660 526)" fill="#9BAEC7"/>
</g>
</g>
<g id="Group">
<g id="Vector">
<use xlink:href="#path10_fill" transform="translate(-664.33 528.498)" fill="#9BAEC7"/>
</g>
</g>
<g id="Group">
<g id="Vector">
<use xlink:href="#path11_fill" transform="translate(-664.335 528.498)" fill="#9BAEC7"/>
</g>
</g>
<g id="Group">
<g id="Vector">
<use xlink:href="#path12_fill" transform="translate(-735 461)" fill="#9BAEC7"/>
</g>
</g>
</g>
</g>
</g>
</g>
<defs>
<path id="path0_fill" d="M 41.25 55C 40.525 55 39.81 54.69 39.32 54.09C 38.44 53.025 38.59 51.45 39.66 50.57C 42.49 48.24 43.75 43.44 43.75 35C 43.75 18.455 30.295 5 13.75 5C 12.39 5 11.03 5.095 9.68 5.285C 19.805 11.585 26.25 22.81 26.25 35C 26.25 36.745 26.12 38.495 25.865 40.205C 25.66 41.57 24.39 42.495 23.02 42.305C 21.655 42.1 20.715 40.825 20.92 39.46C 21.14 38 21.25 36.495 21.25 35C 21.25 22.52 13.365 11.225 1.635 6.885C 0.654998 6.525 0 5.585 0 4.54C 0 3.495 0.649998 2.56 1.635 2.195C 5.58 0.74 9.655 0 13.75 0C 33.05 0 48.75 15.7 48.75 35C 48.75 45.21 46.98 51.02 42.84 54.43C 42.375 54.81 41.81 55 41.25 55Z"/>
<path id="path1_fill" d="M 2.5 15C 1.12 15 0 13.88 0 12.5L 0 2.5C 0 1.12 1.12 0 2.5 0C 3.88 0 5 1.12 5 2.5L 5 12.5C 5 13.88 3.88 15 2.5 15Z"/>
<path id="path2_fill" d="M 11.1601 10.0001C 10.7351 10.0001 10.3051 9.89506 9.91005 9.66506L 1.25005 4.66506C 0.0550514 3.97506 -0.354947 2.44505 0.335053 1.25005C 1.02505 0.0550523 2.55005 -0.35495 3.75005 0.33505L 12.4101 5.33505C 13.6051 6.02505 14.0151 7.55505 13.3251 8.75005C 12.8651 9.55005 12.0251 10.0001 11.1601 10.0001Z"/>
<path id="path3_fill" d="M 2.50505 10.0001C 1.64005 10.0001 0.800051 9.55005 0.335051 8.75005C -0.354949 7.55505 0.0550519 6.02505 1.25005 5.33505L 9.91005 0.33505C 11.0951 -0.35495 12.6301 0.0550523 13.3251 1.25005C 14.0151 2.44505 13.6051 3.97506 12.4101 4.66506L 3.75005 9.66506C 3.36005 9.89506 2.93005 10.0001 2.50505 10.0001Z"/>
<path id="path4_fill" d="M 11.1601 10.0001C 10.7351 10.0001 10.3051 9.89506 9.91005 9.66506L 1.25005 4.66506C 0.0550514 3.97506 -0.354947 2.44505 0.335053 1.25005C 1.02505 0.0550523 2.55505 -0.35495 3.75005 0.33505L 12.4101 5.33505C 13.6051 6.02505 14.0151 7.55505 13.3251 8.75005C 12.8651 9.55005 12.0251 10.0001 11.1601 10.0001Z"/>
<path id="path5_fill" d="M 2.50505 10.0001C 1.64005 10.0001 0.800051 9.55005 0.335051 8.75005C -0.354949 7.55505 0.0550543 6.02505 1.25005 5.33505L 9.91005 0.33505C 11.1001 -0.35495 12.6301 0.0550523 13.3251 1.25005C 14.0151 2.44505 13.6051 3.97506 12.4101 4.66506L 3.75005 9.66506C 3.36005 9.89506 2.93005 10.0001 2.50505 10.0001Z"/>
<path id="path6_fill" d="M 11.1601 10.0023C 10.7351 10.0023 10.3051 9.89728 9.91005 9.66728L 1.25005 4.66728C 0.0550514 3.97728 -0.354947 2.44727 0.335053 1.25227C 1.02505 0.0572743 2.55005 -0.357729 3.75005 0.337271L 12.4101 5.33727C 13.6051 6.02727 14.0151 7.55727 13.3251 8.75227C 12.8651 9.55227 12.0251 10.0023 11.1601 10.0023Z"/>
<path id="path7_fill" d="M 2.50505 10.0023C 1.64005 10.0023 0.800051 9.55227 0.335051 8.75227C -0.354949 7.55727 0.0550519 6.02727 1.25005 5.33727L 9.91005 0.337271C 11.1001 -0.357729 12.6301 0.0572743 13.3251 1.25227C 14.0151 2.44727 13.6051 3.97728 12.4101 4.66728L 3.75005 9.66728C 3.36005 9.89728 2.93005 10.0023 2.50505 10.0023Z"/>
<path id="path8_fill" d="M 11.1601 10.0023C 10.7351 10.0023 10.3051 9.89728 9.91005 9.66728L 1.25005 4.66728C 0.0550514 3.97728 -0.354947 2.44727 0.335053 1.25227C 1.02505 0.0572743 2.55505 -0.357729 3.75005 0.337271L 12.4101 5.33727C 13.6051 6.02727 14.0151 7.55727 13.3251 8.75227C 12.8651 9.55227 12.0251 10.0023 11.1601 10.0023Z"/>
<path id="path9_fill" d="M 2.50505 10.0023C 1.64005 10.0023 0.800051 9.55227 0.335051 8.75227C -0.354949 7.55727 0.0550543 6.02727 1.25005 5.33727L 9.91005 0.337271C 11.1001 -0.357729 12.6301 0.0572743 13.3251 1.25227C 14.0151 2.44727 13.6051 3.97728 12.4101 4.66728L 3.75005 9.66728C 3.36005 9.89728 2.93005 10.0023 2.50505 10.0023Z"/>
<path id="path10_fill" d="M 11.16 10.0023C 10.735 10.0023 10.305 9.89728 9.91005 9.66728L 1.25005 4.66728C 0.0550514 3.97728 -0.354947 2.44727 0.335053 1.25227C 1.02505 0.0572743 2.55505 -0.357729 3.75005 0.337271L 12.41 5.33727C 13.605 6.02727 14.0151 7.55727 13.3251 8.75227C 12.8651 9.55227 12.025 10.0023 11.16 10.0023Z"/>
<path id="path11_fill" d="M 2.50505 10.0023C 1.64005 10.0023 0.800051 9.55227 0.335051 8.75227C -0.354949 7.55727 0.0550543 6.02727 1.25005 5.33727L 9.91005 0.337271C 11.0951 -0.357729 12.6301 0.0572743 13.3251 1.25227C 14.0151 2.44727 13.6051 3.97728 12.4101 4.66728L 3.75005 9.66728C 3.36005 9.89728 2.93005 10.0023 2.50505 10.0023Z"/>
<path id="path12_fill" d="M 92.5 75C 91.12 75 90 73.88 90 72.5C 90 71.12 91.12 70 92.5 70C 104.905 70 115 59.905 115 47.5C 115 35.095 104.905 25 92.5 25C 90.32 25 88.035 25.405 85.52 26.23C 84.28 26.635 82.945 26.025 82.44 24.83C 77.33 12.785 65.58 5 52.5 5C 36.165 5 22.315 17.22 20.285 33.425C 20.155 34.46 19.4 35.3 18.395 35.545C 10.505 37.45 5 44.425 5 52.5C 5 62.15 12.85 70 22.5 70C 23.88 70 25 71.12 25 72.5C 25 73.88 23.88 75 22.5 75C 10.095 75 0 64.905 0 52.5C 0 42.68 6.32 34.13 15.565 31.145C 18.62 13.275 34.21 0 52.5 0C 66.845 0 79.8 8.115 86.11 20.845C 88.33 20.28 90.435 20 92.5 20C 107.665 20 120 32.335 120 47.5C 120 62.665 107.665 75 92.5 75Z"/>
</defs>
</svg>
