<svg width="120" height="115" viewBox="0 0 120 115" version="1.1" xmlns="http://www.w3.org/2000/svg" xmlns:xlink="http://www.w3.org/1999/xlink">
<title>50n</title>
<desc>Created using Figma</desc>
<g id="Canvas" transform="translate(735 -294)">
<g id="50n">
<g id="Group">
<g id="Group">
<g id="Vector">
<use xlink:href="#path0_fill" transform="translate(-705 369)" fill="#9BAEC7"/>
</g>
</g>
<g id="Group">
<g id="Vector">
<use xlink:href="#path0_fill" transform="translate(-705 384)" fill="#9BAEC7"/>
</g>
</g>
<g id="Group">
<g id="Vector">
<use xlink:href="#path0_fill" transform="translate(-705 399)" fill="#9BAEC7"/>
</g>
</g>
<g id="Group">
<g id="Group">
<g id="Group">
<g id="Vector">
<use xlink:href="#path1_fill" transform="translate(-663.75 294)" fill="#9BAEC7"/>
</g>
</g>
<g id="Group">
<g id="Vector">
<use xlink:href="#path2_fill" transform="translate(-735 314)" fill="#9BAEC7"/>
</g>
</g>
</g>
</g>
</g>
</g>
</g>
<defs>
<path id="path0_fill" d="M 39.99 10C 35.985 10 33.87 8.31 32.175 6.955C 30.76 5.82 29.735 5 27.485 5C 25.24 5 24.27 5.775 22.8 6.95C 21.1 8.31 18.99 10 14.985 10C 10.985 10 8.875 8.31 7.18 6.955C 5.715 5.775 4.745 5 2.5 5C 1.12 5 0 3.88 0 2.5C 0 1.12 1.12 0 2.5 0C 6.5 0 8.615 1.69 10.31 3.05C 11.775 4.225 12.745 5 14.99 5C 17.235 5 18.21 4.225 19.68 3.045C 21.38 1.69 23.49 0 27.49 0C 31.495 0 33.61 1.69 35.305 3.045C 36.72 4.18 37.745 5 39.995 5C 42.245 5 43.27 4.18 44.685 3.045C 46.385 1.69 48.5 0 52.5 0C 53.88 0 55 1.12 55 2.5C 55 3.88 53.88 5 52.5 5C 50.25 5 49.225 5.82 47.81 6.955C 46.11 8.31 43.995 10 39.99 10Z"/>
<path id="path1_fill" d="M 41.25 55C 40.53 55 39.815 54.69 39.32 54.09C 38.44 53.025 38.59 51.45 39.655 50.57C 42.49 48.24 43.75 43.44 43.75 35C 43.75 18.455 30.295 5 13.75 5C 12.39 5 11.03 5.095 9.68 5.285C 19.805 11.585 26.25 22.81 26.25 35C 26.25 36.74 26.125 38.49 25.865 40.205C 25.665 41.57 24.375 42.495 23.03 42.31C 21.665 42.105 20.72 40.835 20.925 39.47C 21.14 37.995 21.25 36.495 21.25 35C 21.25 22.52 13.365 11.225 1.63 6.885C 0.650001 6.525 0 5.59 0 4.54C 0 3.49 0.654998 2.56 1.635 2.195C 5.58 0.74 9.66 0 13.75 0C 33.045 0 48.75 15.7 48.75 35C 48.75 45.205 46.98 51.015 42.84 54.43C 42.375 54.81 41.81 55 41.25 55Z"/>
<path id="path2_fill" d="M 92.5 75C 91.12 75 90 73.88 90 72.5C 90 71.12 91.12 70 92.5 70C 104.905 70 115 59.905 115 47.5C 115 35.095 104.905 25 92.5 25C 90.32 25 88.035 25.405 85.515 26.23C 84.3 26.645 82.945 26.025 82.44 24.83C 77.33 12.785 65.58 5 52.5 5C 36.165 5 22.315 17.22 20.285 33.425C 20.16 34.46 19.4 35.3 18.39 35.545C 10.51 37.45 5 44.425 5 52.5C 5 62.15 12.85 70 22.5 70C 23.88 70 25 71.12 25 72.5C 25 73.88 23.88 75 22.5 75C 10.095 75 0 64.905 0 52.5C 0 42.68 6.32 34.13 15.565 31.145C 18.62 13.275 34.21 0 52.5 0C 66.845 0 79.8 8.115 86.11 20.845C 88.33 20.28 90.44 20 92.5 20C 107.66 20 120 32.335 120 47.5C 120 62.665 107.66 75 92.5 75Z"/>
</defs>
</svg>
