<svg width="14" height="12" viewBox="0 0 14 12" version="1.1" xmlns="http://www.w3.org/2000/svg" xmlns:xlink="http://www.w3.org/1999/xlink">
<title>celsius</title>
<desc>Created using Figma</desc>
<g id="Canvas" transform="translate(-27 -92)">
<g id="celsius">
<g id="Group">
<g id="Group">
<g id="Vector">
<use xlink:href="#path0_fill" transform="translate(27.4348 92.1304)" fill="#9BAEC7"/>
</g>
</g>
<g id="Group">
<g id="Vector">
<use xlink:href="#path1_fill" transform="translate(36.5652 92.1304)" fill="#9BAEC7"/>
</g>
</g>
</g>
</g>
</g>
<defs>
<path id="path0_fill" d="M 4.56522 11.7391L 3.26087 11.7391C 1.46348 11.7391 0 10.2757 0 8.47826L 0 3.26087C 0 1.46348 1.46348 0 3.26087 0L 4.56522 0C 6.36261 0 7.82609 1.46348 7.82609 3.26087C 7.82609 3.62087 7.53391 3.91304 7.17391 3.91304C 6.81391 3.91304 6.52174 3.62087 6.52174 3.26087C 6.52174 2.18217 5.64391 1.30435 4.56522 1.30435L 3.26087 1.30435C 2.18217 1.30435 1.30435 2.18217 1.30435 3.26087L 1.30435 8.47826C 1.30435 9.55696 2.18217 10.4348 3.26087 10.4348L 4.56522 10.4348C 5.64391 10.4348 6.52174 9.55696 6.52174 8.47826C 6.52174 8.11826 6.81391 7.82609 7.17391 7.82609C 7.53391 7.82609 7.82609 8.11826 7.82609 8.47826C 7.82609 10.2757 6.36261 11.7391 4.56522 11.7391Z"/>
<path id="path1_fill" d="M 1.95652 3.91304C 0.877826 3.91304 0 3.03522 0 1.95652C 0 0.877826 0.877826 0 1.95652 0C 3.03522 0 3.91304 0.877826 3.91304 1.95652C 3.91304 3.03522 3.03522 3.91304 1.95652 3.91304ZM 1.95652 1.30435C 1.59652 1.30435 1.30435 1.59652 1.30435 1.95652C 1.30435 2.31652 1.59652 2.6087 1.95652 2.6087C 2.31652 2.6087 2.6087 2.31652 2.6087 1.95652C 2.6087 1.59652 2.31652 1.30435 1.95652 1.30435Z"/>
</defs>
</svg>
