<svg width="120" height="80" viewBox="0 0 120 80" version="1.1" xmlns="http://www.w3.org/2000/svg" xmlns:xlink="http://www.w3.org/1999/xlink">
<title>default</title>
<desc>Created using Figma</desc>
<g id="Canvas" transform="translate(735 -735)">
<g id="default">
<g id="Group">
<g id="Group">
<g id="Vector">
<use xlink:href="#path0_fill" transform="translate(-731.036 735)" fill="#9BAEC7"/>
</g>
</g>
<g id="Group">
<g id="Vector">
<use xlink:href="#path1_fill" transform="translate(-685 787)" fill="#9BAEC7"/>
</g>
</g>
<g id="Group">
<g id="Vector">
<use xlink:href="#path2_fill" transform="translate(-665.157 735)" fill="#9BAEC7"/>
</g>
</g>
<g id="Group">
<g id="Vector">
<use xlink:href="#path3_fill" transform="translate(-735 777)" fill="#9BAEC7"/>
</g>
</g>
<g id="Group">
<g id="Vector">
<use xlink:href="#path4_fill" transform="translate(-677 777)" fill="#9BAEC7"/>
</g>
</g>
</g>
</g>
</g>
<defs>
<path id="path0_fill" d="M 2.03607 40C 1.63607 40 1.23607 40 0.836068 39.6C 0.0360681 38.8 -0.363932 37.6 0.436068 36.8L 21.2361 4.8C 23.2361 2 26.4361 0 30.0361 0C 34.0361 0 37.6361 2.4 39.6361 6L 44.8361 16C 45.2361 16.8 44.8361 18 44.0361 18.8C 43.2361 19.2 42.0361 18.8 41.2361 18L 36.0361 7.6C 34.8361 5.6 32.8361 4 30.0361 4C 28.0361 4 26.0361 5.2 24.8361 7.2L 4.03607 39.2C 3.23607 39.6 2.83607 40 2.03607 40Z"/>
<path id="path1_fill" d="M 18 10C 16.8 10 16 9.2 16 8C 16 6.8 14.4 4 10 4C 5.6 4 4 6.8 4 8C 4 9.2 3.2 10 2 10C 0.8 10 0 9.2 0 8C 0 4.8 3.2 0 10 0C 16.8 0 20 4.8 20 8C 20 9.2 19.2 10 18 10Z"/>
<path id="path2_fill" d="M 44.1569 40C 43.3569 40 42.9569 39.6 42.5569 39.2L 20.5569 7.2C 19.3569 5.2 17.3569 4 14.9569 4C 12.5569 4 10.1569 5.2 8.95693 7.6L 3.75692 18C 3.35692 18.8 2.15693 19.2 0.956925 18.8C 0.156925 18.4 -0.243078 17.2 0.156922 16L 5.35692 5.6C 7.35692 2.4 10.9569 0 14.9569 0C 18.5569 0 21.7569 2 23.7569 4.8L 45.7569 36.8C 46.5569 37.6 46.1569 38.8 45.3569 39.6C 44.9569 40 44.5569 40 44.1569 40Z"/>
<path id="path3_fill" d="M 22 38C 10 38 0 27.6 0 15.2L 0 10C 0 6 6 0 10 0L 60 4C 61.2 4 62 5.2 62 6C 62 7.2 60.8 8 60 8L 56 7.6C 54.8 24 39.6 38 22 38ZM 10 4C 8.4 4 4 8.4 4 10L 4 15.2C 4 25.2 12.4 34 22 34C 37.6 34 51.2 21.6 52 7.2L 10 4Z"/>
<path id="path4_fill" d="M 40 38C 22.4 38 7.2 24 6 7.6L 2 8C 0.8 8 0 7.2 0 6C 0 4.8 0.8 4 2 4L 52.4 0C 56.4 0 62 5.6 62 9.6L 62 14.8C 62 27.2 51.6 38 40 38ZM 10 7.2C 10.8 21.6 24.4 34 40 34C 49.6 34 58 24.8 58 14.4L 58 9.2C 58 7.6 54 3.6 52.4 3.6L 10 7.2Z"/>
</defs>
</svg>
