<svg width="12" height="19" viewBox="0 0 12 19" version="1.1" xmlns="http://www.w3.org/2000/svg" xmlns:xlink="http://www.w3.org/1999/xlink">
<title>blood drop.3</title>
<desc>Created using Figma</desc>
<g id="Canvas" transform="translate(-73 -161)">
<g id="blood drop.3">
<g id="Vector">
<mask id="mask0_outline_ins">
<use xlink:href="#path0_fill" fill="white" transform="translate(73 161)"/>
</mask>
<g mask="url(#mask0_outline_ins)">
<use xlink:href="#path1_stroke_2x" transform="translate(73 161)" fill="#9BAEC7"/>
</g>
</g>
</g>
</g>
<defs>
<path id="path0_fill" d="M 6.31551 0.142099C 6.1892 -0.0473663 5.87342 -0.0473663 5.74711 0.142099C 5.49449 0.521029 6.02294e-08 10.1206 6.02294e-08 12.8994C 6.02294e-08 16.1203 2.77882 18.8992 5.99973 18.8992C 9.22064 18.8992 11.9995 16.1203 11.9995 12.8994C 12.0626 10.1838 6.56813 0.584184 6.31551 0.142099ZM 6.06289 16.4361C 4.16823 16.4361 2.58936 14.8572 2.58936 12.9626C 2.58936 12.7731 2.71567 12.6468 2.90513 12.6468C 3.0946 12.6468 3.22091 12.7731 3.22091 12.9626C 3.22091 14.5415 4.48401 15.8046 6.06289 15.8046C 6.25235 15.8046 6.37866 15.9309 6.37866 16.1203C 6.37866 16.3098 6.25235 16.4361 6.06289 16.4361Z"/>
<path id="path1_stroke_2x" d="M 6.31551 0.142099L 7.18375 -0.35404L 7.16666 -0.383944L 7.14756 -0.412601L 6.31551 0.142099ZM 11.9995 12.8994L 10.9997 12.8762L 10.9995 12.8878L 10.9995 12.8994L 11.9995 12.8994ZM 7.14756 -0.412601C 6.62542 -1.1958 5.43719 -1.1958 4.91506 -0.412601L 6.57916 0.696799C 6.42156 0.933194 6.18609 1 6.03131 1C 5.87653 1 5.64105 0.933194 5.48346 0.696799L 7.14756 -0.412601ZM 4.91506 -0.412601C 4.7527 -0.169061 3.29315 2.37191 1.88541 5.17157C 1.17726 6.58009 0.464724 8.09105 -0.0659179 9.41543C -0.578451 10.6958 -1 11.986 -1 12.8994L 1 12.8994C 1 12.4234 1.26526 11.4716 1.79084 10.1587C 2.29831 8.88977 2.97519 7.45612 3.67224 6.07003C 4.36866 4.68481 5.07003 3.37964 5.61785 2.3881C 5.89094 1.89377 6.12239 1.48377 6.29514 1.18251C 6.46594 0.884592 6.59636 0.671635 6.57916 0.696799L 4.91506 -0.412601ZM -1 12.8994C -1 16.6726 2.22654 19.8992 5.99973 19.8992L 5.99973 17.8992C 3.33111 17.8992 1 15.568 1 12.8994L -1 12.8994ZM 5.99973 19.8992C 9.77292 19.8992 12.9995 16.6726 12.9995 12.8994L 10.9995 12.8994C 10.9995 15.568 8.66835 17.8992 5.99973 17.8992L 5.99973 19.8992ZM 12.9992 12.9227C 13.0204 12.0127 12.6056 10.7234 12.1033 9.45451C 11.5813 8.13726 10.8745 6.62949 10.1703 5.22095C 8.76011 2.4014 7.30989 -0.133291 7.18375 -0.35404L 5.44726 0.638238C 5.57374 0.859574 6.99708 3.34571 8.38147 6.11538C 9.0746 7.50145 9.74533 8.93039 10.2437 10.1907C 10.7618 11.4993 11.0101 12.4283 10.9997 12.8762L 12.9992 12.9227ZM 6.06289 15.4361C 4.72052 15.4361 3.58936 14.3049 3.58936 12.9626L 1.58936 12.9626C 1.58936 15.4095 3.61595 17.4361 6.06289 17.4361L 6.06289 15.4361ZM 3.58936 12.9626C 3.58936 13.0951 3.54082 13.2832 3.3833 13.4407C 3.22578 13.5983 3.03765 13.6468 2.90513 13.6468L 2.90513 11.6468C 2.58315 11.6468 2.23713 11.7585 1.96909 12.0265C 1.70105 12.2946 1.58936 12.6406 1.58936 12.9626L 3.58936 12.9626ZM 2.90513 13.6468C 2.77262 13.6468 2.58448 13.5983 2.42696 13.4407C 2.26944 13.2832 2.22091 13.0951 2.22091 12.9626L 4.22091 12.9626C 4.22091 12.6406 4.10922 12.2946 3.84118 12.0265C 3.57314 11.7585 3.22711 11.6468 2.90513 11.6468L 2.90513 13.6468ZM 2.22091 12.9626C 2.22091 15.0937 3.93172 16.8046 6.06289 16.8046L 6.06289 14.8046C 5.03629 14.8046 4.22091 13.9892 4.22091 12.9626L 2.22091 12.9626ZM 6.06289 16.8046C 5.93037 16.8046 5.74223 16.756 5.58472 16.5985C 5.4272 16.441 5.37866 16.2528 5.37866 16.1203L 7.37866 16.1203C 7.37866 15.7983 7.26697 15.4523 6.99893 15.1843C 6.73089 14.9162 6.38487 14.8046 6.06289 14.8046L 6.06289 16.8046ZM 5.37866 16.1203C 5.37866 15.9878 5.4272 15.7997 5.58472 15.6422C 5.74223 15.4846 5.93037 15.4361 6.06289 15.4361L 6.06289 17.4361C 6.38487 17.4361 6.73089 17.3244 6.99893 17.0564C 7.26697 16.7883 7.37866 16.4423 7.37866 16.1203L 5.37866 16.1203Z"/>
</defs>
</svg>
