<svg width="24" height="24" viewBox="0 0 24 24" version="1.1" xmlns="http://www.w3.org/2000/svg" xmlns:xlink="http://www.w3.org/1999/xlink">
<title>wind</title>
<desc>Created using Figma</desc>
<g id="Canvas" transform="translate(100 -158)">
<g id="wind">
<g id="Group">
<g id="Group">
<g id="Vector">
<use xlink:href="#path0_fill" transform="translate(-100 166)" fill="#9BAEC7"/>
</g>
</g>
<g id="Group">
<g id="Vector">
<use xlink:href="#path1_fill" transform="translate(-100 172)" fill="#9BAEC7"/>
</g>
</g>
<g id="Group">
<g id="Vector">
<use xlink:href="#path2_fill" transform="translate(-100 178)" fill="#9BAEC7"/>
</g>
</g>
<g id="XMLID 208">
<g id="XMLID 210">
<g id="Vector">
<use xlink:href="#path3_fill" transform="translate(-96.0008 160)" fill="#9BAEC7"/>
</g>
</g>
<g id="XMLID 209">
<g id="Vector">
<use xlink:href="#path4_fill" transform="translate(-91.001 158)" fill="#9BAEC7"/>
</g>
</g>
</g>
</g>
</g>
</g>
<defs>
<path id="path0_fill" d="M 13.999 12C 11.544 12 9.56702 11.349 7.82402 10.774C 6.56302 10.359 5.47402 10 4.49902 10C 2.23402 10 0.783024 10.912 0.769024 10.921C 0.539024 11.068 0.227024 11.002 0.0790237 10.77C -0.0699763 10.538 -0.0019763 10.228 0.230024 10.08C 0.298024 10.035 1.94402 9 4.49902 9C 5.63402 9 6.79402 9.382 8.13702 9.825C 9.80902 10.375 11.704 11 13.999 11C 20.14 11 22.999 9.411 22.999 6C 22.999 1 20.298 1 18.999 1C 17.7 1 16.999 2.03 16.999 3C 16.999 3.944 18.068 5 19.499 5C 19.775 5 19.999 5.224 19.999 5.5C 19.999 5.776 19.775 6 19.499 6C 17.635 6 15.999 4.598 15.999 3C 15.999 1.525 17.121 0 18.999 0C 20.235 0 23.999 0 23.999 6C 23.999 12 16.473 12 13.999 12Z"/>
<path id="path1_fill" d="M 10.653 2.512C 9.42002 2.512 8.13802 2.056 6.99802 1.65C 6.05902 1.316 5.17102 1 4.49902 1C 2.23402 1 0.783024 1.912 0.769024 1.921C 0.539024 2.069 0.227024 2.003 0.0790237 1.77C -0.0699763 1.538 -0.0019763 1.228 0.230024 1.08C 0.298024 1.035 1.94402 0 4.49902 0C 5.34402 0 6.31002 0.344 7.33302 0.708C 9.45502 1.463 11.647 2.241 13.092 0.21C 13.253 -0.015 13.566 -0.0659996 13.789 0.0930004C 14.014 0.253 14.066 0.565 13.906 0.79C 12.982 2.089 11.841 2.512 10.653 2.512Z"/>
<path id="path2_fill" d="M 15.5 4C 15.482 4 15.466 3.999 15.448 3.998C 11.831 3.629 9.42302 2.641 7.66502 1.919C 6.41502 1.405 5.42702 1 4.49902 1C 2.23402 1 0.783024 1.912 0.769024 1.921C 0.539024 2.069 0.227024 2.003 0.0790237 1.77C -0.0699763 1.538 -0.0019763 1.228 0.230024 1.08C 0.298024 1.035 1.94402 0 4.49902 0C 5.62402 0 6.69202 0.438 8.04502 0.993C 9.84102 1.73 12.077 2.648 15.55 3.002C 15.824 3.03 16.025 3.275 15.996 3.55C 15.97 3.808 15.753 4 15.5 4Z"/>
<path id="path3_fill" d="M 0.499781 11C 0.297781 11 0.114781 10.878 0.0377808 10.691C -0.0392192 10.504 0.00378063 10.289 0.145781 10.146C 1.16678 9.124 1.47478 7.258 1.77078 5.454C 2.04578 3.781 2.30578 2.2 3.16278 1.344C 4.02978 0.478 5.18278 0 6.40878 0C 7.63478 0 8.78778 0.478 9.65478 1.345C 10.5218 2.212 10.9998 3.365 10.9998 4.591C 10.9998 5.818 10.5218 6.97 9.65478 7.837C 7.67478 9.817 4.25178 11 0.499781 11ZM 6.40878 1C 5.44978 1 4.54878 1.374 3.86978 2.052C 3.24078 2.68 3.00678 4.107 2.75878 5.617C 2.51578 7.096 2.24578 8.732 1.52578 9.969C 4.60478 9.781 7.32978 8.75 8.94878 7.13C 9.62678 6.452 9.99978 5.55 9.99978 4.591C 9.99978 3.632 9.62678 2.73 8.94778 2.052C 8.26878 1.374 7.36778 1 6.40878 1Z"/>
<path id="path4_fill" d="M 0.5 9C 0.224 9 0 8.776 0 8.5C 0 8.256 0.175 8.053 0.406 8.009C 1.032 7.722 5 4.394 5 0.5C 5 0.224 5.224 0 5.5 0C 5.776 0 6 0.224 6 0.5C 6 5.044 1.301 9 0.5 9Z"/>
</defs>
</svg>
